# Blender v2.81 (sub 16) OBJ File: 'floor_basic.blend'
# www.blender.org
mtllib floor_basic.mtl
o Cube.016_Cube.017
v 0.517004 0.152126 -0.861721
v 0.517004 0.000403 -0.861721
v 0.517004 0.152126 -0.308219
v 0.517004 0.000403 -0.308219
v 0.180624 0.152126 -0.861721
v 0.180624 0.000403 -0.861721
v 0.180624 0.152126 -0.308219
v 0.180624 0.000403 -0.308219
v 0.168190 0.152126 -0.276751
v 0.168190 0.000403 -0.276751
v 0.168190 0.152126 0.276751
v 0.168190 0.000403 0.276751
v -0.168190 0.152126 -0.276751
v -0.168190 0.000403 -0.276751
v -0.168190 0.152126 0.276751
v -0.168190 0.000403 0.276751
v 0.516577 0.152126 -0.293005
v 0.516577 0.000403 -0.293005
v 0.516577 0.152126 0.260497
v 0.516577 0.000403 0.260497
v 0.180197 0.152126 -0.293005
v 0.180197 0.000403 -0.293005
v 0.180197 0.152126 0.260497
v 0.180197 0.000403 0.260497
v 0.866627 0.152126 -0.286084
v 0.866627 0.000403 -0.286084
v 0.866627 0.152126 0.267418
v 0.866627 0.000403 0.267418
v 0.530247 0.152126 -0.286084
v 0.530247 0.000403 -0.286084
v 0.530247 0.152126 0.267418
v 0.530247 0.000403 0.267418
v 0.875936 0.152126 0.278227
v 0.875936 0.000403 0.278227
v 0.875936 0.152126 0.831729
v 0.875936 0.000403 0.831729
v 0.539555 0.152126 0.278227
v 0.539555 0.000403 0.278227
v 0.539555 0.152126 0.831729
v 0.539555 0.000403 0.831729
v 0.523781 0.152126 0.275478
v 0.523781 0.000403 0.275478
v 0.523781 0.152126 0.828980
v 0.523781 0.000403 0.828980
v 0.187401 0.152126 0.275478
v 0.187401 0.000403 0.275478
v 0.187401 0.152126 0.828980
v 0.187401 0.000403 0.828980
v 0.172430 0.152126 0.290150
v 0.172430 0.000403 0.290150
v 0.172430 0.152126 0.843652
v 0.172430 0.000403 0.843652
v -0.163950 0.152126 0.290150
v -0.163950 0.000403 0.290150
v -0.163950 0.152126 0.843652
v -0.163950 0.000403 0.843652
v -0.882677 0.152126 -0.276751
v -0.882677 0.000403 -0.276751
v -0.882677 0.152126 0.276751
v -0.882677 0.000403 0.276751
v -1.219057 0.152126 -0.276751
v -1.219057 0.000403 -0.276751
v -1.219057 0.152126 0.276751
v -1.219057 0.000403 0.276751
v -0.534289 0.152126 -0.293005
v -0.534289 0.000403 -0.293005
v -0.534289 0.152126 0.260497
v -0.534289 0.000403 0.260497
v -0.870669 0.152126 -0.293005
v -0.870669 0.000403 -0.293005
v -0.870669 0.152126 0.260497
v -0.870669 0.000403 0.260497
v -0.184239 0.152126 -0.286084
v -0.184239 0.000403 -0.286084
v -0.184239 0.152126 0.267418
v -0.184239 0.000403 0.267418
v -0.520620 0.152126 -0.286084
v -0.520620 0.000403 -0.286084
v -0.520620 0.152126 0.267418
v -0.520620 0.000403 0.267418
v -0.174931 0.152126 0.278227
v -0.174931 0.000403 0.278227
v -0.174931 0.152126 0.831729
v -0.174931 0.000403 0.831729
v -0.511311 0.152126 0.278227
v -0.511311 0.000403 0.278227
v -0.511311 0.152126 0.831729
v -0.511311 0.000403 0.831729
v -0.527086 0.152126 0.275478
v -0.527086 0.000403 0.275478
v -0.527086 0.152126 0.828980
v -0.527086 0.000403 0.828980
v -0.863466 0.152126 0.275478
v -0.863466 0.000403 0.275478
v -0.863466 0.152126 0.828980
v -0.863466 0.000403 0.828980
v -0.878436 0.152126 0.290150
v -0.878436 0.000403 0.290150
v -0.878436 0.152126 0.843652
v -0.878436 0.000403 0.843652
v -1.214816 0.152126 0.290150
v -1.214816 0.000403 0.290150
v -1.214816 0.152126 0.843652
v -1.214816 0.000403 0.843652
v 0.161414 0.152126 -1.413949
v 0.161414 0.000403 -1.413949
v 0.161414 0.152126 -0.860447
v 0.161414 0.000403 -0.860447
v -0.174966 0.152126 -1.413949
v -0.174966 0.000403 -1.413949
v -0.174966 0.152126 -0.860447
v -0.174966 0.000403 -0.860447
v 0.509801 0.152126 -1.430203
v 0.509801 0.000403 -1.430203
v 0.509801 0.152126 -0.876701
v 0.509801 0.000403 -0.876701
v 0.173421 0.152126 -1.430203
v 0.173421 0.000403 -1.430203
v 0.173421 0.152126 -0.876701
v 0.173421 0.000403 -0.876701
v 0.859851 0.152126 -1.423282
v 0.859851 0.000403 -1.423282
v 0.859851 0.152126 -0.869780
v 0.859851 0.000403 -0.869780
v 0.523471 0.152126 -1.423282
v 0.523471 0.000403 -1.423282
v 0.523471 0.152126 -0.869780
v 0.523471 0.000403 -0.869780
v 0.869159 0.152126 -0.858971
v 0.869159 0.000403 -0.858971
v 0.869159 0.152126 -0.305469
v 0.869159 0.000403 -0.305469
v 0.532779 0.152126 -0.858971
v 0.532779 0.000403 -0.858971
v 0.532779 0.152126 -0.305469
v 0.532779 0.000403 -0.305469
v 0.165654 0.152126 -0.847049
v 0.165654 0.000403 -0.847049
v 0.165654 0.152126 -0.293547
v 0.165654 0.000403 -0.293547
v -0.170726 0.152126 -0.847049
v -0.170726 0.000403 -0.847049
v -0.170726 0.152126 -0.293547
v -0.170726 0.000403 -0.293547
v -0.894478 0.152126 -1.413949
v -0.894478 0.000403 -1.413949
v -0.894478 0.152126 -0.860447
v -0.894478 0.000403 -0.860447
v -1.230858 0.152126 -1.413949
v -1.230858 0.000403 -1.413949
v -1.230858 0.152126 -0.860447
v -1.230858 0.000403 -0.860447
v -0.546091 0.152126 -1.430203
v -0.546091 0.000403 -1.430203
v -0.546091 0.152126 -0.876701
v -0.546091 0.000403 -0.876701
v -0.882471 0.152126 -1.430203
v -0.882471 0.000403 -1.430203
v -0.882471 0.152126 -0.876701
v -0.882471 0.000403 -0.876701
v -0.196041 0.152126 -1.423282
v -0.196041 0.000403 -1.423282
v -0.196041 0.152126 -0.869780
v -0.196041 0.000403 -0.869780
v -0.532421 0.152126 -1.423282
v -0.532421 0.000403 -1.423282
v -0.532421 0.152126 -0.869780
v -0.532421 0.000403 -0.869780
v -0.186733 0.152126 -0.858971
v -0.186733 0.000403 -0.858971
v -0.186733 0.152126 -0.305469
v -0.186733 0.000403 -0.305469
v -0.523113 0.152126 -0.858971
v -0.523113 0.000403 -0.858971
v -0.523113 0.152126 -0.305469
v -0.523113 0.000403 -0.305469
v -0.538888 0.152126 -0.861720
v -0.538888 0.000403 -0.861720
v -0.538888 0.152126 -0.308219
v -0.538888 0.000403 -0.308219
v -0.875268 0.152126 -0.861720
v -0.875268 0.000403 -0.861720
v -0.875268 0.152126 -0.308219
v -0.875268 0.000403 -0.308219
v -0.890238 0.152126 -0.847049
v -0.890238 0.000403 -0.847049
v -0.890238 0.152126 -0.293547
v -0.890238 0.000403 -0.293547
v -1.226618 0.152126 -0.847049
v -1.226618 0.000403 -0.847049
v -1.226618 0.152126 -0.293547
v -1.226618 0.000403 -0.293547
vt 0.625000 0.500000
vt 0.875000 0.500000
vt 0.875000 0.750000
vt 0.625000 0.750000
vt 0.375000 0.750000
vt 0.625000 1.000000
vt 0.375000 1.000000
vt 0.375000 0.000000
vt 0.625000 0.000000
vt 0.625000 0.250000
vt 0.375000 0.250000
vt 0.125000 0.500000
vt 0.375000 0.500000
vt 0.125000 0.750000
vt 0.625000 0.500000
vt 0.875000 0.500000
vt 0.875000 0.750000
vt 0.625000 0.750000
vt 0.375000 0.750000
vt 0.625000 1.000000
vt 0.375000 1.000000
vt 0.375000 0.000000
vt 0.625000 0.000000
vt 0.625000 0.250000
vt 0.375000 0.250000
vt 0.125000 0.500000
vt 0.375000 0.500000
vt 0.125000 0.750000
vt 0.625000 0.500000
vt 0.875000 0.500000
vt 0.875000 0.750000
vt 0.625000 0.750000
vt 0.375000 0.750000
vt 0.625000 1.000000
vt 0.375000 1.000000
vt 0.375000 0.000000
vt 0.625000 0.000000
vt 0.625000 0.250000
vt 0.375000 0.250000
vt 0.125000 0.500000
vt 0.375000 0.500000
vt 0.125000 0.750000
vt 0.625000 0.500000
vt 0.875000 0.500000
vt 0.875000 0.750000
vt 0.625000 0.750000
vt 0.375000 0.750000
vt 0.625000 1.000000
vt 0.375000 1.000000
vt 0.375000 0.000000
vt 0.625000 0.000000
vt 0.625000 0.250000
vt 0.375000 0.250000
vt 0.125000 0.500000
vt 0.375000 0.500000
vt 0.125000 0.750000
vt 0.625000 0.500000
vt 0.875000 0.500000
vt 0.875000 0.750000
vt 0.625000 0.750000
vt 0.375000 0.750000
vt 0.625000 1.000000
vt 0.375000 1.000000
vt 0.375000 0.000000
vt 0.625000 0.000000
vt 0.625000 0.250000
vt 0.375000 0.250000
vt 0.125000 0.500000
vt 0.375000 0.500000
vt 0.125000 0.750000
vt 0.625000 0.500000
vt 0.875000 0.500000
vt 0.875000 0.750000
vt 0.625000 0.750000
vt 0.375000 0.750000
vt 0.625000 1.000000
vt 0.375000 1.000000
vt 0.375000 0.000000
vt 0.625000 0.000000
vt 0.625000 0.250000
vt 0.375000 0.250000
vt 0.125000 0.500000
vt 0.375000 0.500000
vt 0.125000 0.750000
vt 0.625000 0.500000
vt 0.875000 0.500000
vt 0.875000 0.750000
vt 0.625000 0.750000
vt 0.375000 0.750000
vt 0.625000 1.000000
vt 0.375000 1.000000
vt 0.375000 0.000000
vt 0.625000 0.000000
vt 0.625000 0.250000
vt 0.375000 0.250000
vt 0.125000 0.500000
vt 0.375000 0.500000
vt 0.125000 0.750000
vt 0.625000 0.500000
vt 0.875000 0.500000
vt 0.875000 0.750000
vt 0.625000 0.750000
vt 0.375000 0.750000
vt 0.625000 1.000000
vt 0.375000 1.000000
vt 0.375000 0.000000
vt 0.625000 0.000000
vt 0.625000 0.250000
vt 0.375000 0.250000
vt 0.125000 0.500000
vt 0.375000 0.500000
vt 0.125000 0.750000
vt 0.625000 0.500000
vt 0.875000 0.500000
vt 0.875000 0.750000
vt 0.625000 0.750000
vt 0.375000 0.750000
vt 0.625000 1.000000
vt 0.375000 1.000000
vt 0.375000 0.000000
vt 0.625000 0.000000
vt 0.625000 0.250000
vt 0.375000 0.250000
vt 0.125000 0.500000
vt 0.375000 0.500000
vt 0.125000 0.750000
vt 0.625000 0.500000
vt 0.875000 0.500000
vt 0.875000 0.750000
vt 0.625000 0.750000
vt 0.375000 0.750000
vt 0.625000 1.000000
vt 0.375000 1.000000
vt 0.375000 0.000000
vt 0.625000 0.000000
vt 0.625000 0.250000
vt 0.375000 0.250000
vt 0.125000 0.500000
vt 0.375000 0.500000
vt 0.125000 0.750000
vt 0.625000 0.500000
vt 0.875000 0.500000
vt 0.875000 0.750000
vt 0.625000 0.750000
vt 0.375000 0.750000
vt 0.625000 1.000000
vt 0.375000 1.000000
vt 0.375000 0.000000
vt 0.625000 0.000000
vt 0.625000 0.250000
vt 0.375000 0.250000
vt 0.125000 0.500000
vt 0.375000 0.500000
vt 0.125000 0.750000
vt 0.625000 0.500000
vt 0.875000 0.500000
vt 0.875000 0.750000
vt 0.625000 0.750000
vt 0.375000 0.750000
vt 0.625000 1.000000
vt 0.375000 1.000000
vt 0.375000 0.000000
vt 0.625000 0.000000
vt 0.625000 0.250000
vt 0.375000 0.250000
vt 0.125000 0.500000
vt 0.375000 0.500000
vt 0.125000 0.750000
vt 0.625000 0.500000
vt 0.875000 0.500000
vt 0.875000 0.750000
vt 0.625000 0.750000
vt 0.375000 0.750000
vt 0.625000 1.000000
vt 0.375000 1.000000
vt 0.375000 0.000000
vt 0.625000 0.000000
vt 0.625000 0.250000
vt 0.375000 0.250000
vt 0.125000 0.500000
vt 0.375000 0.500000
vt 0.125000 0.750000
vt 0.625000 0.500000
vt 0.875000 0.500000
vt 0.875000 0.750000
vt 0.625000 0.750000
vt 0.375000 0.750000
vt 0.625000 1.000000
vt 0.375000 1.000000
vt 0.375000 0.000000
vt 0.625000 0.000000
vt 0.625000 0.250000
vt 0.375000 0.250000
vt 0.125000 0.500000
vt 0.375000 0.500000
vt 0.125000 0.750000
vt 0.625000 0.500000
vt 0.875000 0.500000
vt 0.875000 0.750000
vt 0.625000 0.750000
vt 0.375000 0.750000
vt 0.625000 1.000000
vt 0.375000 1.000000
vt 0.375000 0.000000
vt 0.625000 0.000000
vt 0.625000 0.250000
vt 0.375000 0.250000
vt 0.125000 0.500000
vt 0.375000 0.500000
vt 0.125000 0.750000
vt 0.625000 0.500000
vt 0.875000 0.500000
vt 0.875000 0.750000
vt 0.625000 0.750000
vt 0.375000 0.750000
vt 0.625000 1.000000
vt 0.375000 1.000000
vt 0.375000 0.000000
vt 0.625000 0.000000
vt 0.625000 0.250000
vt 0.375000 0.250000
vt 0.125000 0.500000
vt 0.375000 0.500000
vt 0.125000 0.750000
vt 0.625000 0.500000
vt 0.875000 0.500000
vt 0.875000 0.750000
vt 0.625000 0.750000
vt 0.375000 0.750000
vt 0.625000 1.000000
vt 0.375000 1.000000
vt 0.375000 0.000000
vt 0.625000 0.000000
vt 0.625000 0.250000
vt 0.375000 0.250000
vt 0.125000 0.500000
vt 0.375000 0.500000
vt 0.125000 0.750000
vt 0.625000 0.500000
vt 0.875000 0.500000
vt 0.875000 0.750000
vt 0.625000 0.750000
vt 0.375000 0.750000
vt 0.625000 1.000000
vt 0.375000 1.000000
vt 0.375000 0.000000
vt 0.625000 0.000000
vt 0.625000 0.250000
vt 0.375000 0.250000
vt 0.125000 0.500000
vt 0.375000 0.500000
vt 0.125000 0.750000
vt 0.625000 0.500000
vt 0.875000 0.500000
vt 0.875000 0.750000
vt 0.625000 0.750000
vt 0.375000 0.750000
vt 0.625000 1.000000
vt 0.375000 1.000000
vt 0.375000 0.000000
vt 0.625000 0.000000
vt 0.625000 0.250000
vt 0.375000 0.250000
vt 0.125000 0.500000
vt 0.375000 0.500000
vt 0.125000 0.750000
vt 0.625000 0.500000
vt 0.875000 0.500000
vt 0.875000 0.750000
vt 0.625000 0.750000
vt 0.375000 0.750000
vt 0.625000 1.000000
vt 0.375000 1.000000
vt 0.375000 0.000000
vt 0.625000 0.000000
vt 0.625000 0.250000
vt 0.375000 0.250000
vt 0.125000 0.500000
vt 0.375000 0.500000
vt 0.125000 0.750000
vt 0.625000 0.500000
vt 0.875000 0.500000
vt 0.875000 0.750000
vt 0.625000 0.750000
vt 0.375000 0.750000
vt 0.625000 1.000000
vt 0.375000 1.000000
vt 0.375000 0.000000
vt 0.625000 0.000000
vt 0.625000 0.250000
vt 0.375000 0.250000
vt 0.125000 0.500000
vt 0.375000 0.500000
vt 0.125000 0.750000
vt 0.625000 0.500000
vt 0.875000 0.500000
vt 0.875000 0.750000
vt 0.625000 0.750000
vt 0.375000 0.750000
vt 0.625000 1.000000
vt 0.375000 1.000000
vt 0.375000 0.000000
vt 0.625000 0.000000
vt 0.625000 0.250000
vt 0.375000 0.250000
vt 0.125000 0.500000
vt 0.375000 0.500000
vt 0.125000 0.750000
vt 0.625000 0.500000
vt 0.875000 0.500000
vt 0.875000 0.750000
vt 0.625000 0.750000
vt 0.375000 0.750000
vt 0.625000 1.000000
vt 0.375000 1.000000
vt 0.375000 0.000000
vt 0.625000 0.000000
vt 0.625000 0.250000
vt 0.375000 0.250000
vt 0.125000 0.500000
vt 0.375000 0.500000
vt 0.125000 0.750000
vt 0.625000 0.500000
vt 0.875000 0.500000
vt 0.875000 0.750000
vt 0.625000 0.750000
vt 0.375000 0.750000
vt 0.625000 1.000000
vt 0.375000 1.000000
vt 0.375000 0.000000
vt 0.625000 0.000000
vt 0.625000 0.250000
vt 0.375000 0.250000
vt 0.125000 0.500000
vt 0.375000 0.500000
vt 0.125000 0.750000
vn 0.0000 1.0000 0.0000
vn 0.0000 0.0000 1.0000
vn -1.0000 0.0000 0.0000
vn 0.0000 -1.0000 0.0000
vn 1.0000 0.0000 0.0000
vn 0.0000 0.0000 -1.0000
usemtl Material
s off
f 1/1/1 5/2/1 7/3/1 3/4/1
f 4/5/2 3/4/2 7/6/2 8/7/2
f 8/8/3 7/9/3 5/10/3 6/11/3
f 6/12/4 2/13/4 4/5/4 8/14/4
f 2/13/5 1/1/5 3/4/5 4/5/5
f 6/11/6 5/10/6 1/1/6 2/13/6
f 9/15/1 13/16/1 15/17/1 11/18/1
f 12/19/2 11/18/2 15/20/2 16/21/2
f 16/22/3 15/23/3 13/24/3 14/25/3
f 14/26/4 10/27/4 12/19/4 16/28/4
f 10/27/5 9/15/5 11/18/5 12/19/5
f 14/25/6 13/24/6 9/15/6 10/27/6
f 17/29/1 21/30/1 23/31/1 19/32/1
f 20/33/2 19/32/2 23/34/2 24/35/2
f 24/36/3 23/37/3 21/38/3 22/39/3
f 22/40/4 18/41/4 20/33/4 24/42/4
f 18/41/5 17/29/5 19/32/5 20/33/5
f 22/39/6 21/38/6 17/29/6 18/41/6
f 25/43/1 29/44/1 31/45/1 27/46/1
f 28/47/2 27/46/2 31/48/2 32/49/2
f 32/50/3 31/51/3 29/52/3 30/53/3
f 30/54/4 26/55/4 28/47/4 32/56/4
f 26/55/5 25/43/5 27/46/5 28/47/5
f 30/53/6 29/52/6 25/43/6 26/55/6
f 33/57/1 37/58/1 39/59/1 35/60/1
f 36/61/2 35/60/2 39/62/2 40/63/2
f 40/64/3 39/65/3 37/66/3 38/67/3
f 38/68/4 34/69/4 36/61/4 40/70/4
f 34/69/5 33/57/5 35/60/5 36/61/5
f 38/67/6 37/66/6 33/57/6 34/69/6
f 41/71/1 45/72/1 47/73/1 43/74/1
f 44/75/2 43/74/2 47/76/2 48/77/2
f 48/78/3 47/79/3 45/80/3 46/81/3
f 46/82/4 42/83/4 44/75/4 48/84/4
f 42/83/5 41/71/5 43/74/5 44/75/5
f 46/81/6 45/80/6 41/71/6 42/83/6
f 49/85/1 53/86/1 55/87/1 51/88/1
f 52/89/2 51/88/2 55/90/2 56/91/2
f 56/92/3 55/93/3 53/94/3 54/95/3
f 54/96/4 50/97/4 52/89/4 56/98/4
f 50/97/5 49/85/5 51/88/5 52/89/5
f 54/95/6 53/94/6 49/85/6 50/97/6
f 57/99/1 61/100/1 63/101/1 59/102/1
f 60/103/2 59/102/2 63/104/2 64/105/2
f 64/106/3 63/107/3 61/108/3 62/109/3
f 62/110/4 58/111/4 60/103/4 64/112/4
f 58/111/5 57/99/5 59/102/5 60/103/5
f 62/109/6 61/108/6 57/99/6 58/111/6
f 65/113/1 69/114/1 71/115/1 67/116/1
f 68/117/2 67/116/2 71/118/2 72/119/2
f 72/120/3 71/121/3 69/122/3 70/123/3
f 70/124/4 66/125/4 68/117/4 72/126/4
f 66/125/5 65/113/5 67/116/5 68/117/5
f 70/123/6 69/122/6 65/113/6 66/125/6
f 73/127/1 77/128/1 79/129/1 75/130/1
f 76/131/2 75/130/2 79/132/2 80/133/2
f 80/134/3 79/135/3 77/136/3 78/137/3
f 78/138/4 74/139/4 76/131/4 80/140/4
f 74/139/5 73/127/5 75/130/5 76/131/5
f 78/137/6 77/136/6 73/127/6 74/139/6
f 81/141/1 85/142/1 87/143/1 83/144/1
f 84/145/2 83/144/2 87/146/2 88/147/2
f 88/148/3 87/149/3 85/150/3 86/151/3
f 86/152/4 82/153/4 84/145/4 88/154/4
f 82/153/5 81/141/5 83/144/5 84/145/5
f 86/151/6 85/150/6 81/141/6 82/153/6
f 89/155/1 93/156/1 95/157/1 91/158/1
f 92/159/2 91/158/2 95/160/2 96/161/2
f 96/162/3 95/163/3 93/164/3 94/165/3
f 94/166/4 90/167/4 92/159/4 96/168/4
f 90/167/5 89/155/5 91/158/5 92/159/5
f 94/165/6 93/164/6 89/155/6 90/167/6
f 97/169/1 101/170/1 103/171/1 99/172/1
f 100/173/2 99/172/2 103/174/2 104/175/2
f 104/176/3 103/177/3 101/178/3 102/179/3
f 102/180/4 98/181/4 100/173/4 104/182/4
f 98/181/5 97/169/5 99/172/5 100/173/5
f 102/179/6 101/178/6 97/169/6 98/181/6
f 105/183/1 109/184/1 111/185/1 107/186/1
f 108/187/2 107/186/2 111/188/2 112/189/2
f 112/190/3 111/191/3 109/192/3 110/193/3
f 110/194/4 106/195/4 108/187/4 112/196/4
f 106/195/5 105/183/5 107/186/5 108/187/5
f 110/193/6 109/192/6 105/183/6 106/195/6
f 113/197/1 117/198/1 119/199/1 115/200/1
f 116/201/2 115/200/2 119/202/2 120/203/2
f 120/204/3 119/205/3 117/206/3 118/207/3
f 118/208/4 114/209/4 116/201/4 120/210/4
f 114/209/5 113/197/5 115/200/5 116/201/5
f 118/207/6 117/206/6 113/197/6 114/209/6
f 121/211/1 125/212/1 127/213/1 123/214/1
f 124/215/2 123/214/2 127/216/2 128/217/2
f 128/218/3 127/219/3 125/220/3 126/221/3
f 126/222/4 122/223/4 124/215/4 128/224/4
f 122/223/5 121/211/5 123/214/5 124/215/5
f 126/221/6 125/220/6 121/211/6 122/223/6
f 129/225/1 133/226/1 135/227/1 131/228/1
f 132/229/2 131/228/2 135/230/2 136/231/2
f 136/232/3 135/233/3 133/234/3 134/235/3
f 134/236/4 130/237/4 132/229/4 136/238/4
f 130/237/5 129/225/5 131/228/5 132/229/5
f 134/235/6 133/234/6 129/225/6 130/237/6
f 137/239/1 141/240/1 143/241/1 139/242/1
f 140/243/2 139/242/2 143/244/2 144/245/2
f 144/246/3 143/247/3 141/248/3 142/249/3
f 142/250/4 138/251/4 140/243/4 144/252/4
f 138/251/5 137/239/5 139/242/5 140/243/5
f 142/249/6 141/248/6 137/239/6 138/251/6
f 145/253/1 149/254/1 151/255/1 147/256/1
f 148/257/2 147/256/2 151/258/2 152/259/2
f 152/260/3 151/261/3 149/262/3 150/263/3
f 150/264/4 146/265/4 148/257/4 152/266/4
f 146/265/5 145/253/5 147/256/5 148/257/5
f 150/263/6 149/262/6 145/253/6 146/265/6
f 153/267/1 157/268/1 159/269/1 155/270/1
f 156/271/2 155/270/2 159/272/2 160/273/2
f 160/274/3 159/275/3 157/276/3 158/277/3
f 158/278/4 154/279/4 156/271/4 160/280/4
f 154/279/5 153/267/5 155/270/5 156/271/5
f 158/277/6 157/276/6 153/267/6 154/279/6
f 161/281/1 165/282/1 167/283/1 163/284/1
f 164/285/2 163/284/2 167/286/2 168/287/2
f 168/288/3 167/289/3 165/290/3 166/291/3
f 166/292/4 162/293/4 164/285/4 168/294/4
f 162/293/5 161/281/5 163/284/5 164/285/5
f 166/291/6 165/290/6 161/281/6 162/293/6
f 169/295/1 173/296/1 175/297/1 171/298/1
f 172/299/2 171/298/2 175/300/2 176/301/2
f 176/302/3 175/303/3 173/304/3 174/305/3
f 174/306/4 170/307/4 172/299/4 176/308/4
f 170/307/5 169/295/5 171/298/5 172/299/5
f 174/305/6 173/304/6 169/295/6 170/307/6
f 177/309/1 181/310/1 183/311/1 179/312/1
f 180/313/2 179/312/2 183/314/2 184/315/2
f 184/316/3 183/317/3 181/318/3 182/319/3
f 182/320/4 178/321/4 180/313/4 184/322/4
f 178/321/5 177/309/5 179/312/5 180/313/5
f 182/319/6 181/318/6 177/309/6 178/321/6
f 185/323/1 189/324/1 191/325/1 187/326/1
f 188/327/2 187/326/2 191/328/2 192/329/2
f 192/330/3 191/331/3 189/332/3 190/333/3
f 190/334/4 186/335/4 188/327/4 192/336/4
f 186/335/5 185/323/5 187/326/5 188/327/5
f 190/333/6 189/332/6 185/323/6 186/335/6
