# Blender v2.81 (sub 16) OBJ File: 'wall_nerovniy_textured.blend'
# www.blender.org
mtllib wall_nerovniy_textured.mtl
o Cube.000_Cube.003
v 0.344655 0.274647 -0.590267
v 0.344655 -0.238081 -0.590267
v 0.344655 0.274647 0.555255
v 0.344655 -0.238081 0.555255
v 0.372281 0.793845 -0.088005
v 0.372281 0.281118 -0.088005
v 0.372281 0.793845 1.057517
v 0.372281 0.281118 1.057517
v 0.362740 0.280023 0.565105
v 0.362740 -0.232704 0.565105
v 0.362740 -0.232704 1.710627
v 0.333818 0.787783 -1.243958
v 0.333818 0.275055 -1.243958
v 0.333818 0.787783 -0.098436
v 0.333818 0.275055 -0.098436
v 0.337276 0.270708 -1.748395
v 0.337276 -0.242020 -1.748395
v 0.337276 0.270708 -0.602873
v -0.287267 0.270708 -1.748395
v 0.361879 1.305542 -0.631977
v 0.361879 0.792814 -0.631977
v 0.361879 1.305542 0.513544
v 0.361879 0.792814 0.513544
v 0.344230 1.311572 -1.787964
v 0.344230 0.798845 -1.787964
v -0.280312 0.798845 -1.787964
v 0.361630 1.286692 0.518110
v 0.361630 0.773964 0.518110
v 0.361630 1.286692 1.663631
v 0.378377 0.780286 1.058308
v 0.378377 0.267559 1.058308
v 0.378377 0.780286 2.203830
v 0.378377 0.267559 2.203830
v 0.344655 0.274647 -0.590267
v 0.344655 -0.238081 -0.590267
v 0.344655 0.274647 0.555255
v 0.344655 -0.238081 0.555255
v -0.279887 0.274647 -0.590267
v -0.279887 -0.238081 -0.590267
v -0.279887 0.274647 0.555255
v -0.279887 -0.238081 0.555255
v 0.372281 0.793845 -0.088005
v 0.372281 0.281118 -0.088005
v 0.372281 0.793845 1.057517
v 0.372281 0.281118 1.057517
v -0.252262 0.793845 -0.088005
v -0.252262 0.281118 -0.088005
v -0.252262 0.793845 1.057517
v -0.252262 0.281118 1.057517
v 0.362740 0.280023 0.565105
v 0.362740 -0.232704 0.565105
v 0.362740 0.280023 1.710626
v 0.362740 -0.232704 1.710626
v -0.261802 0.280023 0.565105
v -0.261802 -0.232704 0.565105
v -0.261802 0.280023 1.710626
v -0.261802 -0.232704 1.710626
v 0.333818 0.787783 -1.243958
v 0.333818 0.275055 -1.243958
v 0.333818 0.787783 -0.098436
v 0.333818 0.275055 -0.098436
v -0.290725 0.787783 -1.243958
v -0.290725 0.275055 -1.243958
v -0.290725 0.787783 -0.098436
v -0.290725 0.275055 -0.098436
v 0.337276 0.270708 -1.748395
v 0.337276 -0.242020 -1.748395
v 0.337276 0.270708 -0.602873
v 0.337276 -0.242020 -0.602873
v -0.287267 0.270708 -1.748395
v -0.287267 -0.242020 -1.748395
v -0.287267 0.270708 -0.602873
v -0.287267 -0.242020 -0.602873
v 0.361879 1.305542 -0.631977
v 0.361879 0.792814 -0.631977
v 0.361879 1.305542 0.513544
v 0.361879 0.792814 0.513544
v -0.262664 1.305542 -0.631977
v -0.262664 0.792814 -0.631977
v -0.262664 1.305542 0.513544
v -0.262664 0.792814 0.513544
v 0.344230 1.311572 -1.787964
v 0.344230 0.798845 -1.787964
v 0.344230 1.311572 -0.642443
v 0.344230 0.798845 -0.642443
v -0.280312 1.311572 -1.787964
v -0.280312 0.798845 -1.787964
v -0.280312 1.311572 -0.642443
v -0.280312 0.798845 -0.642443
v 0.361630 1.286692 0.518109
v 0.361630 0.773964 0.518109
v 0.361630 1.286692 1.663631
v 0.361630 0.773964 1.663631
v -0.262913 1.286692 0.518109
v -0.262913 0.773964 0.518109
v -0.262913 1.286692 1.663631
v -0.262913 0.773964 1.663631
v 0.378377 0.780286 1.058308
v 0.378377 0.267559 1.058308
v 0.378377 0.780286 2.203830
v 0.378377 0.267559 2.203830
v -0.246166 0.780286 1.058308
v -0.246166 0.267559 1.058308
v -0.246166 0.780286 2.203830
v -0.246166 0.267559 2.203830
vt 0.375000 0.500000
vt 0.625000 0.500000
vt 0.625000 0.750000
vt 0.375000 0.750000
vt 0.625000 0.500000
vt 0.875000 0.500000
vt 0.875000 0.750000
vt 0.625000 0.750000
vt 0.375000 0.750000
vt 0.625000 1.000000
vt 0.375000 1.000000
vt 0.375000 0.000000
vt 0.625000 0.000000
vt 0.625000 0.250000
vt 0.375000 0.250000
vt 0.125000 0.500000
vt 0.375000 0.500000
vt 0.125000 0.750000
vt 0.375000 0.500000
vt 0.625000 0.500000
vt 0.625000 0.750000
vt 0.375000 0.750000
vt 0.625000 0.500000
vt 0.875000 0.500000
vt 0.875000 0.750000
vt 0.625000 0.750000
vt 0.375000 0.750000
vt 0.625000 1.000000
vt 0.375000 1.000000
vt 0.375000 0.000000
vt 0.625000 0.000000
vt 0.625000 0.250000
vt 0.375000 0.250000
vt 0.125000 0.500000
vt 0.375000 0.500000
vt 0.125000 0.750000
vt 0.625000 0.500000
vt 0.875000 0.500000
vt 0.875000 0.750000
vt 0.625000 0.750000
vt 0.375000 0.750000
vt 0.625000 1.000000
vt 0.375000 1.000000
vt 0.375000 0.000000
vt 0.625000 0.000000
vt 0.625000 0.250000
vt 0.375000 0.250000
vt 0.125000 0.500000
vt 0.375000 0.500000
vt 0.125000 0.750000
vt 0.375000 0.500000
vt 0.625000 0.500000
vt 0.625000 0.750000
vt 0.375000 0.750000
vt 0.625000 0.500000
vt 0.875000 0.500000
vt 0.875000 0.750000
vt 0.625000 0.750000
vt 0.375000 0.750000
vt 0.625000 1.000000
vt 0.375000 1.000000
vt 0.375000 0.000000
vt 0.625000 0.000000
vt 0.625000 0.250000
vt 0.375000 0.250000
vt 0.125000 0.500000
vt 0.375000 0.500000
vt 0.125000 0.750000
vt 0.625000 0.500000
vt 0.875000 0.500000
vt 0.875000 0.750000
vt 0.625000 0.750000
vt 0.375000 0.750000
vt 0.625000 1.000000
vt 0.375000 1.000000
vt 0.375000 0.000000
vt 0.625000 0.000000
vt 0.625000 0.250000
vt 0.375000 0.250000
vt 0.125000 0.500000
vt 0.375000 0.500000
vt 0.125000 0.750000
vt 0.375000 0.500000
vt 0.625000 0.500000
vt 0.625000 0.750000
vt 0.375000 0.750000
vt 0.625000 0.500000
vt 0.875000 0.500000
vt 0.875000 0.750000
vt 0.625000 0.750000
vt 0.375000 0.750000
vt 0.625000 1.000000
vt 0.375000 1.000000
vt 0.375000 0.000000
vt 0.625000 0.000000
vt 0.625000 0.250000
vt 0.375000 0.250000
vt 0.125000 0.500000
vt 0.375000 0.500000
vt 0.125000 0.750000
vt 0.625000 0.500000
vt 0.875000 0.500000
vt 0.875000 0.750000
vt 0.625000 0.750000
vt 0.375000 0.750000
vt 0.625000 1.000000
vt 0.375000 1.000000
vt 0.375000 0.000000
vt 0.625000 0.000000
vt 0.625000 0.250000
vt 0.375000 0.250000
vt 0.125000 0.500000
vt 0.375000 0.500000
vt 0.125000 0.750000
vt 0.625000 0.500000
vt 0.875000 0.500000
vt 0.875000 0.750000
vt 0.625000 0.750000
vt 0.375000 0.750000
vt 0.625000 1.000000
vt 0.375000 1.000000
vt 0.375000 0.000000
vt 0.625000 0.000000
vt 0.625000 0.250000
vt 0.375000 0.250000
vt 0.125000 0.500000
vt 0.375000 0.500000
vt 0.125000 0.750000
vt 0.375000 0.500000
vt 0.625000 0.500000
vt 0.625000 0.750000
vt 0.375000 0.750000
vt 0.625000 0.500000
vt 0.875000 0.500000
vt 0.875000 0.750000
vt 0.625000 0.750000
vt 0.375000 0.750000
vt 0.625000 1.000000
vt 0.375000 1.000000
vt 0.375000 0.000000
vt 0.625000 0.000000
vt 0.625000 0.250000
vt 0.375000 0.250000
vt 0.125000 0.500000
vt 0.375000 0.500000
vt 0.125000 0.750000
vn 1.0000 0.0000 0.0000
vn 0.0000 1.0000 0.0000
vn 0.0000 0.0000 1.0000
vn -1.0000 0.0000 0.0000
vn 0.0000 -1.0000 0.0000
vn 0.0000 0.0000 -1.0000
usemtl Material.001
s off
f 2/1/1 1/2/1 3/3/1 4/4/1
f 34/5/2 38/6/2 40/7/2 36/8/2
f 37/9/3 36/8/3 40/10/3 41/11/3
f 41/12/4 40/13/4 38/14/4 39/15/4
f 39/16/5 35/17/5 37/9/5 41/18/5
f 39/15/6 38/14/6 34/5/6 35/17/6
usemtl Material
f 6/19/1 5/20/1 7/21/1 8/22/1
f 42/23/2 46/24/2 48/25/2 44/26/2
f 45/27/3 44/26/3 48/28/3 49/29/3
f 49/30/4 48/31/4 46/32/4 47/33/4
f 47/34/5 43/35/5 45/27/5 49/36/5
f 47/33/6 46/32/6 42/23/6 43/35/6
usemtl Material.002
f 50/37/2 54/38/2 56/39/2 52/40/2
f 53/41/3 52/40/3 56/42/3 57/43/3
f 57/44/4 56/45/4 54/46/4 55/47/4
f 55/48/5 51/49/5 53/41/5 57/50/5
f 51/49/1 50/37/1 52/40/1 53/41/1
f 55/47/6 54/46/6 50/37/6 51/49/6
usemtl Material.003
f 13/51/1 12/52/1 14/53/1 15/54/1
f 58/55/2 62/56/2 64/57/2 60/58/2
f 61/59/3 60/58/3 64/60/3 65/61/3
f 65/62/4 64/63/4 62/64/4 63/65/4
f 63/66/5 59/67/5 61/59/5 65/68/5
f 63/65/6 62/64/6 58/55/6 59/67/6
usemtl Material.004
f 66/69/2 70/70/2 72/71/2 68/72/2
f 69/73/3 68/72/3 72/74/3 73/75/3
f 73/76/4 72/77/4 70/78/4 71/79/4
f 71/80/5 67/81/5 69/73/5 73/82/5
f 67/81/1 66/69/1 68/72/1 69/73/1
f 71/79/6 70/78/6 66/69/6 67/81/6
usemtl Material.005
f 21/83/1 20/84/1 22/85/1 23/86/1
f 74/87/2 78/88/2 80/89/2 76/90/2
f 77/91/3 76/90/3 80/92/3 81/93/3
f 81/94/4 80/95/4 78/96/4 79/97/4
f 79/98/5 75/99/5 77/91/5 81/100/5
f 79/97/6 78/96/6 74/87/6 75/99/6
usemtl Material.006
f 82/101/2 86/102/2 88/103/2 84/104/2
f 85/105/3 84/104/3 88/106/3 89/107/3
f 89/108/4 88/109/4 86/110/4 87/111/4
f 87/112/5 83/113/5 85/105/5 89/114/5
f 83/113/1 82/101/1 84/104/1 85/105/1
f 87/111/6 86/110/6 82/101/6 83/113/6
usemtl Material.007
f 90/115/2 94/116/2 96/117/2 92/118/2
f 93/119/3 92/118/3 96/120/3 97/121/3
f 97/122/4 96/123/4 94/124/4 95/125/4
f 95/126/5 91/127/5 93/119/5 97/128/5
f 91/127/1 90/115/1 92/118/1 93/119/1
f 95/125/6 94/124/6 90/115/6 91/127/6
usemtl Material.008
f 31/129/1 30/130/1 32/131/1 33/132/1
f 98/133/2 102/134/2 104/135/2 100/136/2
f 101/137/3 100/136/3 104/138/3 105/139/3
f 105/140/4 104/141/4 102/142/4 103/143/4
f 103/144/5 99/145/5 101/137/5 105/146/5
f 103/143/6 102/142/6 98/133/6 99/145/6
l 9 10
l 11 10
l 16 17
l 16 18
l 19 16
l 25 26
l 24 25
l 27 28
l 27 29
