# Blender v2.81 (sub 16) OBJ File: ''
# www.blender.org
mtllib spikes-placeholder.mtl
o Cube
v 1.000000 -0.805633 -1.000000
v 1.000000 -1.000000 -1.000000
v 1.000000 -0.805633 1.000000
v 1.000000 -1.000000 1.000000
v -1.000000 -0.774072 -1.000000
v -1.000000 -1.000000 -1.000000
v -1.000000 -0.805633 1.000000
v -1.000000 -1.000000 1.000000
v -0.022592 -0.805633 1.000000
v -1.000000 -0.890828 -0.073105
v 1.000000 -0.994418 0.075797
v -0.061743 -0.805633 -1.000000
v -0.042194 -0.979065 -0.001795
v -1.000000 -0.719712 1.000000
v -0.982420 -0.805633 1.000000
v -1.000000 -0.702043 -0.957007
v -1.000000 -0.805633 -0.992216
v 0.437486 -0.068299 -0.476489
v -0.495313 -0.100019 0.480996
v -0.554750 -0.074870 -0.512963
v 0.504454 -0.073228 0.523664
v -1.000000 -0.847961 0.466842
v -0.748055 -0.736387 0.750288
v -0.657035 -0.780591 -0.047571
v -0.811800 -0.780591 0.133521
v -0.268029 -0.739630 0.730532
v -0.476429 -0.805633 1.000000
v -0.316881 -0.780591 0.290879
v -0.031781 -0.735335 0.530372
v -0.051904 -0.738277 -0.497579
v -0.333214 -0.742308 -0.731817
v -0.618097 -0.805633 -0.995384
v -1.000000 -0.783351 -0.576319
v -0.805861 -0.674121 -0.763394
v -0.827212 -0.780591 -0.243801
v -0.357403 -0.780591 -0.316150
v 0.727490 -0.832461 -0.200320
v 0.516045 -0.836078 0.039766
v 0.696464 -0.742775 -0.709275
v 0.153503 -0.730939 -0.781905
v 1.000000 -0.905022 -0.433631
v 0.214381 -0.780591 -0.247540
v 0.373305 -0.805633 -1.000000
v 0.795298 -0.730589 0.803233
v 0.542665 -0.805633 1.000000
v 0.255664 -0.780591 0.284517
v 0.727794 -0.827279 0.321813
v 1.000000 -0.881745 0.627392
v 0.236477 -0.737274 0.765858
vt 0.625000 0.500000
vt 0.662942 0.536341
vt 0.625000 0.570796
vt 0.375000 0.750000
vt 0.625000 0.750000
vt 0.625000 0.807167
vt 0.625000 0.877824
vt 0.625000 0.934554
vt 0.625000 0.997802
vt 0.620242 1.000000
vt 0.375000 1.000000
vt 0.375000 0.000000
vt 0.620242 0.000000
vt 0.625000 0.000000
vt 0.625000 0.066645
vt 0.625000 0.134138
vt 0.625000 0.197040
vt 0.625000 0.244626
vt 0.625000 0.249027
vt 0.625000 0.250000
vt 0.375000 0.250000
vt 0.125000 0.500000
vt 0.375000 0.500000
vt 0.125000 0.750000
vt 0.625000 0.634475
vt 0.625000 0.703424
vt 0.625000 0.367282
vt 0.625000 0.421663
vt 0.659026 0.665227
vt 0.752824 0.750000
vt 0.783504 0.716317
vt 0.809554 0.750000
vt 0.875000 0.615862
vt 0.853401 0.594525
vt 0.875000 0.552960
vt 0.851475 0.641690
vt 0.832129 0.619054
vt 0.755274 0.624776
vt 0.753973 0.691296
vt 0.718042 0.660565
vt 0.685494 0.629971
vt 0.723202 0.594057
vt 0.756488 0.562803
vt 0.794675 0.585481
vt 0.875000 0.505374
vt 0.850733 0.529576
vt 0.827262 0.500577
vt 0.875000 0.500973
vt 0.757718 0.500000
vt 0.875000 0.500000
vt 0.819344 0.560880
vt 0.789610 0.661360
vt 0.693226 0.565346
vt 0.703337 0.500000
vt 0.730812 0.527262
vt 0.650588 0.725404
vt 0.682167 0.750000
vt 0.686943 0.690458
vt 0.625000 1.000000
vt 0.872802 0.750000
vt 0.843507 0.718786
vt 0.875000 0.683355
vt 0.875000 0.750000
vt 0.811914 0.685124
vt 0.791652 0.533523
vt 0.659064 0.599960
vt 0.720440 0.720732
vn 0.3466 0.9239 0.1621
vn 0.0000 0.0000 1.0000
vn -1.0000 0.0000 0.0000
vn 0.0000 -1.0000 0.0000
vn 1.0000 0.0000 0.0000
vn 0.0000 0.0000 -1.0000
vn 0.3878 0.9031 -0.1845
vn 0.0000 0.9713 0.2379
vn -0.3853 0.9024 0.1927
vn -0.2808 0.9293 -0.2400
vn -0.2054 0.8913 -0.4042
vn -0.2538 0.8647 0.4334
vn 0.1323 0.8926 0.4309
vn 0.1561 0.7934 -0.5884
vn 0.0081 0.2395 0.9709
vn 0.1288 0.5329 0.8363
vn 0.2042 0.8885 -0.4109
vn 0.1213 0.5676 -0.8143
vn 0.0000 0.9344 0.3563
vn 0.1189 0.5331 -0.8376
vn -0.3232 0.9441 -0.0643
vn -0.8011 0.5806 0.1452
vn 0.3127 0.8963 -0.3143
vn 0.2519 0.5555 -0.7924
vn 0.8048 0.5761 -0.1431
vn 0.1051 0.9838 0.1452
vn 0.0000 0.9636 0.2672
vn 0.0371 0.5928 0.8045
vn -0.4451 0.8927 -0.0709
vn -0.8285 0.5582 0.0456
vn -0.0019 0.9728 -0.2316
vn 0.1332 0.5380 -0.8324
vn -0.3295 0.9233 0.1972
vn -0.8473 0.5260 0.0730
vn 0.2721 0.9131 0.3036
vn -0.3128 0.9103 0.2712
vn 0.7917 0.6024 0.1016
vn 0.0975 0.9862 -0.1341
vn 0.0000 0.9461 -0.3240
vn 0.0000 0.9774 -0.2113
vn 0.3795 0.9112 0.1599
vn 0.8278 0.5590 0.0480
vn -0.0202 0.5565 0.8306
vn 0.2823 0.9227 0.2626
vn -0.2621 0.8660 0.4257
vn -0.2089 0.9698 -0.1259
vn 0.4830 0.8579 -0.1752
vn 0.8445 0.4898 -0.2168
vn -0.7746 0.6264 -0.0873
vn -0.1239 0.9810 0.1493
vn 0.0000 0.9599 0.2803
vn -0.0625 0.5418 0.8381
vn -0.1973 0.8898 -0.4116
vn 0.3176 0.9099 -0.2668
usemtl Material
s off
f 1/1/1 39/2/1 41/3/1
f 4/4/2 3/5/2 45/6/2 9/7/2 27/8/2 15/9/2 14/10/2 8/11/2
f 8/12/3 14/13/3 7/14/3 22/15/3 10/16/3 33/17/3 16/18/3 17/19/3 5/20/3 6/21/3
f 6/22/4 2/23/4 4/4/4 8/24/4
f 2/23/5 1/1/5 41/3/5 11/25/5 48/26/5 3/5/5 4/4/5
f 6/21/6 5/20/6 12/27/6 43/28/6 1/1/6 2/23/6
f 11/25/7 47/29/7 48/26/7
f 9/30/8 26/31/8 27/32/8
f 10/33/9 35/34/9 33/35/9
f 10/33/10 25/36/10 24/37/10
f 13/38/11 29/39/11 46/40/11
f 13/38/12 38/41/12 42/42/12
f 13/38/13 30/43/13 36/44/13
f 16/45/14 34/46/14 32/47/14 17/48/14
f 17/48/15 32/47/15 12/49/15 5/50/15
f 20/51/16 35/34/16 24/37/16 36/44/16
f 13/38/17 28/52/17 29/39/17
f 18/53/18 39/2/18 43/54/18 40/55/18
f 3/5/19 44/56/19 45/57/19
f 21/58/20 47/29/20 38/41/20 46/40/20
f 14/10/6 15/9/6 7/59/6
f 15/60/21 23/61/21 22/62/21 7/63/21
f 18/53/22 40/55/22 30/43/22 42/42/22
f 24/37/23 28/52/23 13/38/23
f 28/52/24 24/37/24 25/36/24 19/64/24
f 29/39/25 28/52/25 19/64/25 26/31/25
f 26/31/26 9/30/26 29/39/26
f 27/32/27 23/61/27 15/60/27
f 23/61/28 27/32/28 26/31/28 19/64/28
f 22/62/29 25/36/29 10/33/29
f 25/36/30 22/62/30 23/61/30 19/64/30
f 32/47/31 31/65/31 12/49/31
f 31/65/32 32/47/32 34/46/32 20/51/32
f 33/35/33 34/46/33 16/45/33
f 34/46/34 33/35/34 35/34/34 20/51/34
f 36/44/35 24/37/35 13/38/35
f 24/37/36 35/34/36 10/33/36
f 36/44/37 30/43/37 31/65/37 20/51/37
f 31/65/38 30/43/38 12/49/38
f 40/55/39 43/54/39 12/49/39
f 43/54/40 39/2/40 1/1/40
f 41/3/41 37/66/41 11/25/41
f 37/66/42 41/3/42 39/2/42 18/53/42
f 42/42/43 38/41/43 37/66/43 18/53/43
f 37/66/44 38/41/44 11/25/44
f 42/42/45 30/43/45 13/38/45
f 30/43/46 40/55/46 12/49/46
f 48/26/47 44/56/47 3/5/47
f 44/56/48 48/26/48 47/29/48 21/58/48
f 46/40/49 29/39/49 49/67/49 21/58/49
f 49/67/50 29/39/50 9/30/50
f 45/57/51 49/67/51 9/30/51
f 49/67/52 45/57/52 44/56/52 21/58/52
f 46/40/53 38/41/53 13/38/53
f 38/41/54 47/29/54 11/25/54
